<?xml version="1.0"?>
<svg xmlns="http://www.w3.org/2000/svg" id="outline" viewBox="0 0 512 512" width="512px" height="512px"><g><path d="M112,152h8a24.0275,24.0275,0,0,0,24-24v-8H128v8a8.00917,8.00917,0,0,1-8,8h-8Z" data-original="#000000" class="active-path" data-old_color="#000000" fill="#69E781"/><circle cx="104" cy="104" r="8" data-original="#000000" class="active-path" data-old_color="#000000" fill="#69E781"/><circle cx="152" cy="104" r="8" data-original="#000000" class="active-path" data-old_color="#000000" fill="#69E781"/><path d="M432,288a8.00917,8.00917,0,0,1-8,8h-8v16h8a24.0275,24.0275,0,0,0,24-24v-8H432Z" data-original="#000000" class="active-path" data-old_color="#000000" fill="#69E781"/><path d="M448,168H416a48.054,48.054,0,0,0-48,48v71.70728l-16.56543-19.32642-7.58984-37.9502c-.02771-.13842-.07227-.27075-.10694-.40673l.01367-.00342-4.19458-16.42725,15.41431-6.16553A7.99975,7.99975,0,0,0,360,200V168a7.99836,7.99836,0,0,0-1.34375-4.4375l-16-24A7.99943,7.99943,0,0,0,336,136H319.7439l-.45386-1.77734,2.01416-2.68653A110.96709,110.96709,0,0,0,343.562,67.93066a19.34612,19.34612,0,0,0-10.66943-17.83007c-.02686-.0127-.05518-.02735-.084-.041a19.2524,19.2524,0,0,0-15.17883-.78686,24.0074,24.0074,0,0,0-27.746-16.801l-5.96143,1.19238a44.68533,44.68533,0,0,0-35.57763,49.36035c.01416.11133.03027.22168.04882.332l7.7168,45.96777c.0083.0498.01709.10058.02686.15039l6.84985,36.53271-8.92749,2.23194a7.99863,7.99863,0,0,0-5.8208,5.82031l-7.417,29.668-21.75061,19.938-52.4657-29.14795-4.19861-12.59546A63.99111,63.99111,0,0,0,192,128V72a56.06322,56.06322,0,0,0-56-56H120A56.06322,56.06322,0,0,0,64,72v56a63.99111,63.99111,0,0,0,29.59314,53.92212l-4.19861,12.59546L36.57373,223.8623A40.02518,40.02518,0,0,0,16,258.8291V312a7.99923,7.99923,0,0,0,3.3501,6.50977L32,327.54541V488a8.00008,8.00008,0,0,0,8,8H224a8.00008,8.00008,0,0,0,8-8V328h24a8.00148,8.00148,0,0,0,7.04395-4.207l15.13452-28.10742,9.9768,49.88379a8.00377,8.00377,0,0,0,1.69873,3.55175l38.61133,46.334,15.64356,93.86035A8,8,0,0,0,352,496H488a8.00008,8.00008,0,0,0,8-8V344a8.00071,8.00071,0,0,0-5.47021-7.58984l-12.3877-4.12915A63.76122,63.76122,0,0,0,496,288V216A48.054,48.054,0,0,0,448,168Zm-64,48a32.03635,32.03635,0,0,1,32-32h32a32.03635,32.03635,0,0,1,32,32v8H456.98486a34.1968,34.1968,0,0,1-33.22363-25.94043,8.00016,8.00016,0,0,0-15.52246,0L408,199.01465a32.93379,32.93379,0,0,1-24,24.00781Zm-52.28125-64L344,170.42188V194.584l-8.43555,3.374L323.82935,152ZM271.877,126.59961l-7.6748-45.71582a28.6851,28.6851,0,0,1,22.85791-31.53027l5.96191-1.19239a7.99908,7.99908,0,0,1,9.56836,7.84473v7.93408a36.70946,36.70946,0,0,0-16,30.437v6.11133h16V94.37695a20.83108,20.83108,0,0,1,11.57813-18.7334,8.00371,8.00371,0,0,0,3.35937-3.17089l3.87549-6.74805a3.30613,3.30613,0,0,1,4.3374-1.31055l.0459.02246a3.29646,3.29646,0,0,1,1.78223,3.01953,95.04869,95.04869,0,0,1-19.06446,54.48047l-4.314,5.752a8.00075,8.00075,0,0,0-1.35156,6.77929l23.90234,93.6084L294.3717,246.57324,291.489,231.19971l16.08863-8.04444A7.99979,7.99979,0,0,0,312,216V176a7.99979,7.99979,0,0,0-4.42236-7.15527l-16-8a7.98239,7.98239,0,0,0-5.51807-.60547l-7.52283,1.88061Zm-18.47119,87.29785a7.99769,7.99769,0,0,0,2.35547-3.957l6.83594-27.34375,24.47217-6.11816L296,180.94434v30.11132l-27.57764,13.78907a8.00164,8.00164,0,0,0-2.63134,2.11035L164.19238,352H137.88867L99.74634,332.929l23.52685-42.34839,25.14917,12.5747a7.99641,7.99641,0,0,0,8.9834-1.25781ZM120,32h16a39.95855,39.95855,0,0,1,31.91479,15.91943A49.5801,49.5801,0,0,1,125.22314,72H80A40.04552,40.04552,0,0,1,120,32ZM80,128V88h45.22314a65.48449,65.48449,0,0,0,50.13453-23.0918A40.03746,40.03746,0,0,1,176,72v56a48,48,0,0,1-96,0Zm48,64a63.72164,63.72164,0,0,0,19.84546-3.16528l3.00146,9.00439-12.50366,12.50366a8.006,8.006,0,0,0-.99951,1.21973L128,225.57812l-9.34375-14.01562a8.006,8.006,0,0,0-.99951-1.21973l-12.50366-12.50366,3.00146-9.00439A63.72164,63.72164,0,0,0,128,192ZM32,258.8291a24.01548,24.01548,0,0,1,12.34473-20.98047L94.61,209.92383l11.17321,11.17285,15.56055,23.34082a7.99959,7.99959,0,0,0,13.3125,0l15.56055-23.34082L161.39,209.92383l45.24866,25.13794-55.98584,51.32007-27.07519-13.53711-32-16-7.15528,14.31054L108.94922,283.419,77.3584,340.28223,32,307.88281ZM216,480H48V338.97412l27.3501,19.53565a8.00035,8.00035,0,0,0,11.64306-2.625l4.97571-8.9563,40.45349,20.2268A7.99583,7.99583,0,0,0,136,368h32a8.00133,8.00133,0,0,0,6.209-2.95508L204.308,328H216Zm35.22168-168H217.308l59.35523-73.05273,3.00525,16.02783-3.6377,2.07861a8.0012,8.0012,0,0,0-3.87549,8.51563l1.10144,5.50732ZM480,480H358.77686l-14.88575-89.31543a7.99565,7.99565,0,0,0-1.74511-3.80566l-38.69971-46.43946L288.97559,268.085,330.332,244.45312l5.82324,29.11622a7.99787,7.99787,0,0,0,1.77051,3.63671l48,56,.448-.384a63.85627,63.85627,0,0,0,76.47851,11.22852L480,349.76562ZM432,336a48.054,48.054,0,0,1-48-48V239.32788A48.90118,48.90118,0,0,0,416.16553,219.083,50.17489,50.17489,0,0,0,456.98486,240H480v48A48.054,48.054,0,0,1,432,336Z" data-original="#000000" class="active-path" data-old_color="#000000" fill="#69E781"/><circle cx="408" cy="264" r="8" data-original="#000000" class="active-path" data-old_color="#000000" fill="#69E781"/><circle cx="456" cy="264" r="8" data-original="#000000" class="active-path" data-old_color="#000000" fill="#69E781"/></g> </svg>
