<?xml version="1.0"?>
<svg xmlns="http://www.w3.org/2000/svg" id="Layer_3" enable-background="new 0 0 64 64" height="512px" viewBox="0 0 64 64" width="512px"><g><g><path d="m59.998 56.998h-.393c-.001 0-.001 0-.002 0-2.548 0-4.914-1.266-6.327-3.386-.835-1.253-1.276-2.711-1.276-4.216v-1.396-.014c0-.002-.001-.003-.001-.005-.005-1.763-.779-3.345-1.999-4.441v-3.54c0-.737-.405-1.375-1-1.722v-13.738c1.543-.552 2.895-1.579 3.832-2.985.109-.164.168-.358.168-.555v-9c0-.034-.002-.068-.005-.102-.085-2.874-1.245-5.563-3.288-7.605-2.124-2.123-4.947-3.293-7.95-3.293h-29.757-10c-.552 0-1 .447-1 1v22c0 .553.448 1 1 1h8c1.306 0 2.408-.843 2.819-2.01 2.988-.026 5.988-.293 8.925-.812l3.674-.648c4.717-.832 9.268-2.287 13.582-4.316v3.786c0 .197.059.391.168.555.937 1.406 2.289 2.433 3.832 2.985v13.739c-.595.347-1 .985-1 1.722v3.54c-1.224 1.099-2 2.688-2 4.46h.002c0 .006-.003.011-.003.017l.001.154c0 1.557-.606 3.021-1.708 4.121l-.671.672c-1.045 1.046-1.621 2.435-1.621 3.914 0 1.636.637 3.173 1.793 4.328 1.157 1.156 2.694 1.793 4.328 1.793h17.878c1.655 0 3.001-1.347 3.001-3.001s-1.347-3.001-3.002-3.001zm-13.998-12.998c1.854 0 3.403 1.274 3.854 2.988l-7.712.01c.448-1.719 2-2.998 3.858-2.998zm-35-22c0 .552-.449 1-1 1h-7v-20h8zm31.258-6.444 1.228-.682-.971-1.748-1.228.682c-5.06 2.812-10.516 4.747-16.216 5.753l-3.674.648c-2.763.487-5.584.742-8.396.777v-17.986h28.757c2.469 0 4.79.961 6.536 2.707s2.706 4.066 2.706 6.535v5.758h-10v-1.779c.42-.219.843-.435 1.258-.665zm-1.258 5.128v-.684h10v.684c-1.08 1.456-2.781 2.316-4.605 2.316h-.789c-1.825 0-3.526-.86-4.606-2.316zm4.605 4.316h.789c.204 0 .404-.022.605-.037v13.037h-2v-13.037c.202.015.402.037.606.037zm-1.605 15h4v2.35c-.627-.222-1.298-.35-2-.35s-1.373.128-2 .35zm15.999 21h-17.878c-1.084 0-2.146-.44-2.914-1.207-.778-.778-1.207-1.813-1.207-2.914 0-.944.368-1.832 1.036-2.5l.671-.672c1.282-1.281 2.064-2.93 2.25-4.708l8.043-.012v.408c0 1.901.558 3.743 1.613 5.326 1.785 2.678 4.772 4.276 7.99 4.276h.003.392c.552 0 1.002.449 1.002 1.001s-.449 1.002-1.001 1.002z" data-original="#000000" class="active-path" data-old_color="#000000" fill="#69E781"/><path d="m31.998 56.998h-.393c-.001 0-.001 0-.002 0-2.548 0-4.914-1.266-6.327-3.386-.835-1.253-1.276-2.711-1.276-4.216v-1.396-.014c0-.002-.001-.003-.001-.005-.005-1.763-.779-3.345-1.999-4.441v-3.54c0-1.103-.897-2-2-2h-4c-1.103 0-2 .897-2 2v3.54c-1.224 1.099-2 2.688-2 4.46h.002c0 .006-.003.011-.003.017l.001.155c0 1.557-.606 3.021-1.708 4.121l-.671.672c-1.045 1.046-1.621 2.435-1.621 3.914 0 1.636.637 3.173 1.793 4.328 1.157 1.156 2.694 1.793 4.328 1.793h17.878c1.655 0 3.001-1.347 3.001-3.001s-1.347-3.001-3.002-3.001zm-13.998-12.998c1.854 0 3.403 1.274 3.854 2.988l-7.712.01c.448-1.719 2-2.998 3.858-2.998zm-2-4h4v2.35c-.627-.222-1.298-.35-2-.35s-1.373.128-2 .35zm15.999 21h-17.878c-1.084 0-2.146-.44-2.914-1.207-.778-.778-1.207-1.813-1.207-2.914 0-.944.368-1.832 1.036-2.5l.671-.672c1.282-1.281 2.064-2.93 2.25-4.708l8.043-.012v.408c0 1.901.558 3.743 1.613 5.326 1.785 2.678 4.772 4.276 7.99 4.276h.003.392c.552 0 1.002.449 1.002 1.001s-.449 1.002-1.001 1.002z" data-original="#000000" class="active-path" data-old_color="#000000" fill="#69E781"/></g></g> </svg>
